<svg id="visual" viewBox="0 0 1920 1000" width="1920" height="1000" xmlns="http://www.w3.org/2000/svg" xmlns:xlink="http://www.w3.org/1999/xlink" version="1.1"><rect x="0" y="0" width="1920" height="1000" fill="#f1f1f1"></rect><path d="M0 80L14.5 84.7C29 89.3 58 98.7 87.2 102C116.3 105.3 145.7 102.7 174.8 98.5C204 94.3 233 88.7 262 89.8C291 91 320 99 349 101.7C378 104.3 407 101.7 436.2 99C465.3 96.3 494.7 93.7 523.8 93.5C553 93.3 582 95.7 611 96C640 96.3 669 94.7 698 93.7C727 92.7 756 92.3 785.2 94.5C814.3 96.7 843.7 101.3 872.8 102.8C902 104.3 931 102.7 960 102.8C989 103 1018 105 1047.2 104.2C1076.3 103.3 1105.7 99.7 1134.8 95.3C1164 91 1193 86 1222 83.5C1251 81 1280 81 1309 81.3C1338 81.7 1367 82.3 1396.2 82.5C1425.3 82.7 1454.7 82.3 1483.8 82.5C1513 82.7 1542 83.3 1571 85.8C1600 88.3 1629 92.7 1658 96.3C1687 100 1716 103 1745.2 105.7C1774.3 108.3 1803.7 110.7 1832.8 107.3C1862 104 1891 95 1905.5 90.5L1920 86L1920 0L1905.5 0C1891 0 1862 0 1832.8 0C1803.7 0 1774.3 0 1745.2 0C1716 0 1687 0 1658 0C1629 0 1600 0 1571 0C1542 0 1513 0 1483.8 0C1454.7 0 1425.3 0 1396.2 0C1367 0 1338 0 1309 0C1280 0 1251 0 1222 0C1193 0 1164 0 1134.8 0C1105.7 0 1076.3 0 1047.2 0C1018 0 989 0 960 0C931 0 902 0 872.8 0C843.7 0 814.3 0 785.2 0C756 0 727 0 698 0C669 0 640 0 611 0C582 0 553 0 523.8 0C494.7 0 465.3 0 436.2 0C407 0 378 0 349 0C320 0 291 0 262 0C233 0 204 0 174.8 0C145.7 0 116.3 0 87.2 0C58 0 29 0 14.5 0L0 0Z" fill="#f8e6e6" stroke-linecap="round" stroke-linejoin="miter"></path></svg>