<svg id="visual" viewBox="0 0 900 600" width="900" height="600" xmlns="http://www.w3.org/2000/svg" xmlns:xlink="http://www.w3.org/1999/xlink" version="1.1"><rect x="0" y="0" width="900" height="600" fill="#f1f1f1"></rect><path d="M0 64L37.5 68C75 72 150 80 225 76.7C300 73.3 375 58.7 450 54.3C525 50 600 56 675 59.3C750 62.7 825 63.3 862.5 63.7L900 64L900 0L862.5 0C825 0 750 0 675 0C600 0 525 0 450 0C375 0 300 0 225 0C150 0 75 0 37.5 0L0 0Z" fill="#f8e6e6" stroke-linecap="round" stroke-linejoin="miter"></path></svg>