<svg id="visual" viewBox="0 0 1900 1300" width="1900" height="1300" xmlns="http://www.w3.org/2000/svg" xmlns:xlink="http://www.w3.org/1999/xlink" version="1.1"><rect x="0" y="0" width="1900" height="1300" fill="#f8e6e6"></rect><path d="M0 106L45.2 118C90.3 130 180.7 154 271.2 157.7C361.7 161.3 452.3 144.7 542.8 130.3C633.3 116 723.7 104 814.2 112C904.7 120 995.3 148 1085.8 144.5C1176.3 141 1266.7 106 1357.2 87.5C1447.7 69 1538.3 67 1628.8 74C1719.3 81 1809.7 97 1854.8 105L1900 113L1900 0L1854.8 0C1809.7 0 1719.3 0 1628.8 0C1538.3 0 1447.7 0 1357.2 0C1266.7 0 1176.3 0 1085.8 0C995.3 0 904.7 0 814.2 0C723.7 0 633.3 0 542.8 0C452.3 0 361.7 0 271.2 0C180.7 0 90.3 0 45.2 0L0 0Z" fill="#f1f1f1" stroke-linecap="round" stroke-linejoin="miter"></path></svg>