<svg id="visual" viewBox="0 0 1920 1080" width="1920" height="1080" xmlns="http://www.w3.org/2000/svg" xmlns:xlink="http://www.w3.org/1999/xlink" version="1.1"><rect x="0" y="0" width="1920" height="1080" fill="#f1f1f1"></rect><path d="M0 121L14.5 123C29 125 58 129 87.2 122C116.3 115 145.7 97 174.8 91C204 85 233 91 262 95.5C291 100 320 103 349 102.8C378 102.7 407 99.3 436.2 102.8C465.3 106.3 494.7 116.7 523.8 116.3C553 116 582 105 611 97C640 89 669 84 698 83.5C727 83 756 87 785.2 88.7C814.3 90.3 843.7 89.7 872.8 92.7C902 95.7 931 102.3 960 101.3C989 100.3 1018 91.7 1047.2 88.3C1076.3 85 1105.7 87 1134.8 89.3C1164 91.7 1193 94.3 1222 97.7C1251 101 1280 105 1309 110.8C1338 116.7 1367 124.3 1396.2 119.2C1425.3 114 1454.7 96 1483.8 89.3C1513 82.7 1542 87.3 1571 92.8C1600 98.3 1629 104.7 1658 112.5C1687 120.3 1716 129.7 1745.2 127.2C1774.3 124.7 1803.7 110.3 1832.8 106.7C1862 103 1891 110 1905.5 113.5L1920 117L1920 0L1905.5 0C1891 0 1862 0 1832.8 0C1803.7 0 1774.3 0 1745.2 0C1716 0 1687 0 1658 0C1629 0 1600 0 1571 0C1542 0 1513 0 1483.8 0C1454.7 0 1425.3 0 1396.2 0C1367 0 1338 0 1309 0C1280 0 1251 0 1222 0C1193 0 1164 0 1134.8 0C1105.7 0 1076.3 0 1047.2 0C1018 0 989 0 960 0C931 0 902 0 872.8 0C843.7 0 814.3 0 785.2 0C756 0 727 0 698 0C669 0 640 0 611 0C582 0 553 0 523.8 0C494.7 0 465.3 0 436.2 0C407 0 378 0 349 0C320 0 291 0 262 0C233 0 204 0 174.8 0C145.7 0 116.3 0 87.2 0C58 0 29 0 14.5 0L0 0Z" fill="#f8e6e6" stroke-linecap="round" stroke-linejoin="miter"></path></svg>